<svg id="a5033092-9973-41ba-bc2f-5c2e475802e9" data-name="icon-faq" xmlns="http://www.w3.org/2000/svg" width="39" height="39" viewBox="0 0 39 39"><path d="M34.1,10.6,24.7.4a1.1,1.1,0,0,0-.9-.4H8.4A3.9,3.9,0,0,0,4.5,3.9V35.1A3.9,3.9,0,0,0,8.4,39H30.6a3.9,3.9,0,0,0,3.9-3.9V11.4A1.2,1.2,0,0,0,34.1,10.6Zm-3.3.1H24.4V3.8Zm1.1,24.4a1.3,1.3,0,0,1-1.3,1.4H8.4a1.3,1.3,0,0,1-1.3-1.4V3.9A1.3,1.3,0,0,1,8.4,2.5H23.2v8.8a.6.6,0,0,0,.6.6h8.1Z" fill="#5583c3"/><path d="M26.8,28.7H12.2c-.3,0-.5.1-.5.4a.5.5,0,0,0,.5.4H26.8a.5.5,0,0,0,.5-.4C27.3,28.8,27.1,28.7,26.8,28.7Z" fill="#5583c3"/><path d="M26.8,22.2H12.2a.5.5,0,0,0-.5.4c0,.3.2.4.5.4H26.8c.3,0,.5-.1.5-.4A.5.5,0,0,0,26.8,22.2Z" fill="#5583c3"/><path d="M26.8,15.7H12.2a.5.5,0,0,0-.5.5.5.5,0,0,0,.5.4H26.8a.5.5,0,0,0,.5-.4A.5.5,0,0,0,26.8,15.7Z" fill="#5583c3"/></svg>