<svg id="f4d0b6ca-4d56-453e-ada8-b209359a9ddc" data-name="icon-faq" xmlns="http://www.w3.org/2000/svg" width="39" height="39" viewBox="0 0 39 39"><path d="M19.5,34.1a21,21,0,0,1-3.6-.3L7.3,39V30.4C2.9,27.2,0,22.4,0,17.1,0,7.6,8.7,0,19.5,0S39,7.6,39,17.1,30.3,34.1,19.5,34.1Zm0-31.7C10.1,2.4,2.4,9,2.4,17.1,2.4,22,5.3,26.4,9.7,29v5.7l5.8-3.5a18.4,18.4,0,0,0,4.1.5c9.4,0,17.1-6.6,17.1-14.6S28.9,2.4,19.5,2.4ZM28,15.8H11a1.2,1.2,0,0,1-1.2-1.2A1.2,1.2,0,0,1,11,13.4H28a1.3,1.3,0,0,1,1.3,1.2A1.2,1.2,0,0,1,28,15.8ZM13.4,20.7H25.6a1.2,1.2,0,0,1,1.2,1.2,1.2,1.2,0,0,1-1.2,1.3H13.4a1.2,1.2,0,0,1-1.2-1.3A1.2,1.2,0,0,1,13.4,20.7Z" fill="#5583c3" fill-rule="evenodd"/></svg>